<svg xmlns="http://www.w3.org/2000/svg" xmlns:xlink="http://www.w3.org/1999/xlink" width="800" zoomAndPan="magnify" viewBox="0 0 600 225" height="300" preserveAspectRatio="xMidYMid meet" version="1.0"><defs><g/><clipPath id="6c7b5d6cf9"><path d="M 236.933594 50.597656 L 286.433594 50.597656 L 286.433594 87 L 236.933594 87 Z M 236.933594 50.597656 " clip-rule="nonzero"/></clipPath></defs><g fill="#ffffff" fill-opacity="1"><g transform="translate(46.499998, 136.125004)"><g><path d="M 4.875 -46.796875 L 20.21875 -46.796875 C 22.550781 -46.796875 24.679688 -46.457031 26.609375 -45.78125 C 28.546875 -45.113281 30.195312 -44.171875 31.5625 -42.953125 C 32.925781 -41.742188 33.972656 -40.269531 34.703125 -38.53125 C 35.441406 -36.800781 35.8125 -34.878906 35.8125 -32.765625 C 35.8125 -29.640625 35.03125 -26.972656 33.46875 -24.765625 C 31.914062 -22.554688 29.773438 -20.953125 27.046875 -19.953125 L 36.46875 0 L 27.5 0 L 19.046875 -18.71875 L 13 -18.71875 L 13 0 L 4.875 0 Z M 13 -25.28125 L 20.21875 -25.28125 C 22.46875 -25.28125 24.253906 -25.929688 25.578125 -27.234375 C 26.898438 -28.535156 27.5625 -30.289062 27.5625 -32.5 C 27.5625 -34.75 26.890625 -36.546875 25.546875 -37.890625 C 24.203125 -39.234375 22.425781 -39.90625 20.21875 -39.90625 L 13 -39.90625 Z M 13 -25.28125 "/></g></g></g><g fill="#ffffff" fill-opacity="1"><g transform="translate(85.49535, 136.125004)"><g><path d="M 19.5 0.65625 C 17.15625 0.65625 15.019531 0.320312 13.09375 -0.34375 C 11.164062 -1.019531 9.53125 -1.960938 8.1875 -3.171875 C 6.84375 -4.390625 5.800781 -5.863281 5.0625 -7.59375 C 4.332031 -9.332031 3.96875 -11.265625 3.96875 -13.390625 L 3.96875 -22.421875 C 3.96875 -24.546875 4.332031 -26.472656 5.0625 -28.203125 C 5.800781 -29.941406 6.84375 -31.414062 8.1875 -32.625 C 9.53125 -33.84375 11.164062 -34.773438 13.09375 -35.421875 C 15.019531 -36.078125 17.15625 -36.40625 19.5 -36.40625 C 21.84375 -36.40625 23.96875 -36.066406 25.875 -35.390625 C 27.78125 -34.722656 29.40625 -33.78125 30.75 -32.5625 C 32.09375 -31.351562 33.128906 -29.878906 33.859375 -28.140625 C 34.597656 -26.410156 34.96875 -24.484375 34.96875 -22.359375 L 34.96875 -15.859375 L 12.03125 -15.859375 L 12.03125 -13.515625 C 12.03125 -11.128906 12.6875 -9.265625 14 -7.921875 C 15.320312 -6.585938 17.15625 -5.921875 19.5 -5.921875 C 21.28125 -5.921875 22.785156 -6.191406 24.015625 -6.734375 C 25.253906 -7.273438 26.132812 -8.0625 26.65625 -9.09375 L 34.640625 -9.09375 C 34.253906 -7.625 33.601562 -6.28125 32.6875 -5.0625 C 31.78125 -3.851562 30.664062 -2.828125 29.34375 -1.984375 C 28.019531 -1.140625 26.523438 -0.488281 24.859375 -0.03125 C 23.191406 0.425781 21.40625 0.65625 19.5 0.65625 Z M 26.96875 -21.3125 L 26.96875 -22.359375 C 26.96875 -24.742188 26.316406 -26.597656 25.015625 -27.921875 C 23.722656 -29.242188 21.882812 -29.90625 19.5 -29.90625 C 17.15625 -29.90625 15.320312 -29.242188 14 -27.921875 C 12.6875 -26.597656 12.03125 -24.765625 12.03125 -22.421875 L 12.03125 -21.3125 Z M 26.96875 -21.3125 "/></g></g></g><g fill="#ffffff" fill-opacity="1"><g transform="translate(124.490702, 136.125004)"><g><path d="M 19.765625 10.71875 L 11.1875 10.71875 L 16.0625 -2.015625 L 2.28125 -35.75 L 11.1875 -35.75 L 18.203125 -16.703125 C 18.503906 -15.921875 18.75 -15.109375 18.9375 -14.265625 C 19.132812 -13.421875 19.28125 -12.628906 19.375 -11.890625 C 19.5 -11.066406 19.601562 -10.242188 19.6875 -9.421875 L 20.21875 -9.421875 C 20.257812 -10.203125 20.34375 -11.023438 20.46875 -11.890625 C 20.5625 -12.628906 20.691406 -13.421875 20.859375 -14.265625 C 21.035156 -15.109375 21.253906 -15.921875 21.515625 -16.703125 L 28.140625 -35.75 L 36.71875 -35.75 Z M 19.765625 10.71875 "/></g></g></g><g fill="#ffffff" fill-opacity="1"><g transform="translate(163.486054, 136.125004)"><g><path d="M 19.5 0.65625 C 17.15625 0.65625 15.019531 0.320312 13.09375 -0.34375 C 11.164062 -1.019531 9.53125 -1.960938 8.1875 -3.171875 C 6.84375 -4.390625 5.800781 -5.863281 5.0625 -7.59375 C 4.332031 -9.332031 3.96875 -11.265625 3.96875 -13.390625 L 3.96875 -22.421875 C 3.96875 -24.546875 4.332031 -26.472656 5.0625 -28.203125 C 5.800781 -29.941406 6.84375 -31.414062 8.1875 -32.625 C 9.53125 -33.84375 11.164062 -34.773438 13.09375 -35.421875 C 15.019531 -36.078125 17.15625 -36.40625 19.5 -36.40625 C 21.84375 -36.40625 23.96875 -36.066406 25.875 -35.390625 C 27.78125 -34.722656 29.40625 -33.78125 30.75 -32.5625 C 32.09375 -31.351562 33.128906 -29.878906 33.859375 -28.140625 C 34.597656 -26.410156 34.96875 -24.484375 34.96875 -22.359375 L 34.96875 -15.859375 L 12.03125 -15.859375 L 12.03125 -13.515625 C 12.03125 -11.128906 12.6875 -9.265625 14 -7.921875 C 15.320312 -6.585938 17.15625 -5.921875 19.5 -5.921875 C 21.28125 -5.921875 22.785156 -6.191406 24.015625 -6.734375 C 25.253906 -7.273438 26.132812 -8.0625 26.65625 -9.09375 L 34.640625 -9.09375 C 34.253906 -7.625 33.601562 -6.28125 32.6875 -5.0625 C 31.78125 -3.851562 30.664062 -2.828125 29.34375 -1.984375 C 28.019531 -1.140625 26.523438 -0.488281 24.859375 -0.03125 C 23.191406 0.425781 21.40625 0.65625 19.5 0.65625 Z M 26.96875 -21.3125 L 26.96875 -22.359375 C 26.96875 -24.742188 26.316406 -26.597656 25.015625 -27.921875 C 23.722656 -29.242188 21.882812 -29.90625 19.5 -29.90625 C 17.15625 -29.90625 15.320312 -29.242188 14 -27.921875 C 12.6875 -26.597656 12.03125 -24.765625 12.03125 -22.421875 L 12.03125 -21.3125 Z M 26.96875 -21.3125 "/></g></g></g><g fill="#ffffff" fill-opacity="1"><g transform="translate(202.481407, 136.125004)"><g><path d="M 18.140625 0.65625 C 13.929688 0.65625 10.582031 -0.195312 8.09375 -1.90625 C 5.601562 -3.625 4.160156 -6.046875 3.765625 -9.171875 L 12.09375 -9.171875 C 12.351562 -8.035156 13.023438 -7.15625 14.109375 -6.53125 C 15.191406 -5.90625 16.535156 -5.59375 18.140625 -5.59375 L 20.734375 -5.59375 C 22.773438 -5.59375 24.347656 -5.992188 25.453125 -6.796875 C 26.554688 -7.597656 27.109375 -8.691406 27.109375 -10.078125 C 27.109375 -12.460938 25.265625 -13.914062 21.578125 -14.4375 L 16.515625 -15.015625 C 12.441406 -15.535156 9.425781 -16.660156 7.46875 -18.390625 C 5.519531 -20.128906 4.546875 -22.625 4.546875 -25.875 C 4.546875 -29.25 5.726562 -31.847656 8.09375 -33.671875 C 10.457031 -35.492188 13.847656 -36.40625 18.265625 -36.40625 L 20.9375 -36.40625 C 24.875 -36.40625 28.046875 -35.566406 30.453125 -33.890625 C 32.859375 -32.222656 34.273438 -29.894531 34.703125 -26.90625 L 26.390625 -26.90625 C 26.171875 -27.90625 25.570312 -28.695312 24.59375 -29.28125 C 23.625 -29.863281 22.40625 -30.15625 20.9375 -30.15625 L 18.265625 -30.15625 C 14.453125 -30.15625 12.546875 -28.8125 12.546875 -26.125 C 12.546875 -23.832031 14.148438 -22.488281 17.359375 -22.09375 L 22.625 -21.390625 C 26.863281 -20.867188 30 -19.707031 32.03125 -17.90625 C 34.070312 -16.101562 35.09375 -13.578125 35.09375 -10.328125 C 35.09375 -6.816406 33.859375 -4.109375 31.390625 -2.203125 C 28.921875 -0.296875 25.367188 0.65625 20.734375 0.65625 Z M 18.140625 0.65625 "/></g></g></g><g fill="#ffffff" fill-opacity="1"><g transform="translate(241.476759, 136.125004)"><g><path d="M 2.796875 -17.421875 C 2.796875 -20.015625 3.367188 -22.164062 4.515625 -23.875 C 5.660156 -25.59375 7.296875 -26.820312 9.421875 -27.5625 C 8.378906 -29.207031 7.628906 -30.722656 7.171875 -32.109375 C 6.722656 -33.492188 6.5 -34.878906 6.5 -36.265625 C 6.5 -37.910156 6.789062 -39.425781 7.375 -40.8125 C 7.957031 -42.207031 8.789062 -43.390625 9.875 -44.359375 C 10.957031 -45.335938 12.269531 -46.097656 13.8125 -46.640625 C 15.351562 -47.179688 17.078125 -47.453125 18.984375 -47.453125 C 20.929688 -47.453125 22.707031 -47.171875 24.3125 -46.609375 C 25.914062 -46.046875 27.269531 -45.242188 28.375 -44.203125 C 29.476562 -43.160156 30.332031 -41.910156 30.9375 -40.453125 C 31.539062 -39.003906 31.84375 -37.394531 31.84375 -35.625 L 24.3125 -35.625 C 24.3125 -37.132812 23.832031 -38.363281 22.875 -39.3125 C 21.925781 -40.269531 20.628906 -40.75 18.984375 -40.75 C 17.421875 -40.75 16.171875 -40.28125 15.234375 -39.34375 C 14.304688 -38.414062 13.84375 -37.195312 13.84375 -35.6875 C 13.84375 -34.769531 14.046875 -33.8125 14.453125 -32.8125 C 14.867188 -31.820312 15.578125 -30.632812 16.578125 -29.25 L 25.609375 -16.515625 L 29.125 -23.40625 L 36.984375 -23.40625 L 30.03125 -10.203125 L 37.3125 0 L 29.25 0 L 26.1875 -4.21875 C 23.15625 -0.96875 19.472656 0.65625 15.140625 0.65625 C 11.203125 0.65625 8.160156 -0.414062 6.015625 -2.5625 C 3.867188 -4.707031 2.796875 -7.707031 2.796875 -11.5625 Z M 13 -22.484375 C 11.351562 -21.703125 10.53125 -20.015625 10.53125 -17.421875 L 10.53125 -11.5625 C 10.53125 -9.789062 10.992188 -8.425781 11.921875 -7.46875 C 12.859375 -6.519531 14.148438 -6.046875 15.796875 -6.046875 C 17.140625 -6.046875 18.34375 -6.398438 19.40625 -7.109375 C 20.46875 -7.828125 21.363281 -8.75 22.09375 -9.875 Z M 13 -22.484375 "/></g></g></g><g fill="#ffffff" fill-opacity="1"><g transform="translate(280.472111, 136.125004)"><g><path d="M 5.203125 -46.796875 L 34.703125 -46.796875 L 34.703125 -39.328125 L 13.265625 -39.328125 L 13.265625 -27.296875 L 33.015625 -27.296875 L 33.015625 -19.828125 L 13.390625 -19.828125 L 13.390625 0 L 5.203125 0 Z M 5.203125 -46.796875 "/></g></g></g><g fill="#ffffff" fill-opacity="1"><g transform="translate(319.467463, 136.125004)"><g><path d="M 6.171875 -35.75 L 13.84375 -35.75 L 13.84375 -29.578125 L 14.4375 -29.578125 C 14.863281 -31.742188 15.941406 -33.421875 17.671875 -34.609375 C 19.410156 -35.804688 21.625 -36.40625 24.3125 -36.40625 C 28.164062 -36.40625 31.175781 -35.210938 33.34375 -32.828125 C 35.507812 -30.441406 36.59375 -27.144531 36.59375 -22.9375 L 36.59375 -20.34375 L 28.078125 -20.34375 L 28.078125 -22.234375 C 28.078125 -24.523438 27.445312 -26.3125 26.1875 -27.59375 C 24.9375 -28.875 23.207031 -29.515625 21 -29.515625 C 18.914062 -29.515625 17.273438 -28.863281 16.078125 -27.5625 C 14.890625 -26.257812 14.296875 -24.484375 14.296875 -22.234375 L 14.296875 0 L 6.171875 0 Z M 6.171875 -35.75 "/></g></g></g><g fill="#ffffff" fill-opacity="1"><g transform="translate(358.462815, 136.125004)"><g><path d="M 5.390625 -7.40625 L 18.203125 -7.40625 L 18.203125 -28.40625 L 7.015625 -28.40625 L 7.015625 -35.75 L 26 -35.75 L 26 -7.40625 L 36.328125 -7.40625 L 36.328125 0 L 5.390625 0 Z M 15.859375 -45.4375 C 15.859375 -46.6875 16.28125 -47.710938 17.125 -48.515625 C 17.96875 -49.316406 19.082031 -49.71875 20.46875 -49.71875 L 22.171875 -49.71875 C 23.554688 -49.71875 24.671875 -49.316406 25.515625 -48.515625 C 26.359375 -47.710938 26.78125 -46.6875 26.78125 -45.4375 C 26.78125 -44.132812 26.347656 -43.09375 25.484375 -42.3125 C 24.617188 -41.53125 23.488281 -41.140625 22.09375 -41.140625 L 20.46875 -41.140625 C 19.082031 -41.140625 17.96875 -41.53125 17.125 -42.3125 C 16.28125 -43.09375 15.859375 -44.132812 15.859375 -45.4375 Z M 15.859375 -45.4375 "/></g></g></g><g fill="#ffffff" fill-opacity="1"><g transform="translate(397.458167, 136.125004)"><g><path d="M 19.5 0.65625 C 17.15625 0.65625 15.019531 0.320312 13.09375 -0.34375 C 11.164062 -1.019531 9.53125 -1.960938 8.1875 -3.171875 C 6.84375 -4.390625 5.800781 -5.863281 5.0625 -7.59375 C 4.332031 -9.332031 3.96875 -11.265625 3.96875 -13.390625 L 3.96875 -22.421875 C 3.96875 -24.546875 4.332031 -26.472656 5.0625 -28.203125 C 5.800781 -29.941406 6.84375 -31.414062 8.1875 -32.625 C 9.53125 -33.84375 11.164062 -34.773438 13.09375 -35.421875 C 15.019531 -36.078125 17.15625 -36.40625 19.5 -36.40625 C 21.84375 -36.40625 23.96875 -36.066406 25.875 -35.390625 C 27.78125 -34.722656 29.40625 -33.78125 30.75 -32.5625 C 32.09375 -31.351562 33.128906 -29.878906 33.859375 -28.140625 C 34.597656 -26.410156 34.96875 -24.484375 34.96875 -22.359375 L 34.96875 -15.859375 L 12.03125 -15.859375 L 12.03125 -13.515625 C 12.03125 -11.128906 12.6875 -9.265625 14 -7.921875 C 15.320312 -6.585938 17.15625 -5.921875 19.5 -5.921875 C 21.28125 -5.921875 22.785156 -6.191406 24.015625 -6.734375 C 25.253906 -7.273438 26.132812 -8.0625 26.65625 -9.09375 L 34.640625 -9.09375 C 34.253906 -7.625 33.601562 -6.28125 32.6875 -5.0625 C 31.78125 -3.851562 30.664062 -2.828125 29.34375 -1.984375 C 28.019531 -1.140625 26.523438 -0.488281 24.859375 -0.03125 C 23.191406 0.425781 21.40625 0.65625 19.5 0.65625 Z M 26.96875 -21.3125 L 26.96875 -22.359375 C 26.96875 -24.742188 26.316406 -26.597656 25.015625 -27.921875 C 23.722656 -29.242188 21.882812 -29.90625 19.5 -29.90625 C 17.15625 -29.90625 15.320312 -29.242188 14 -27.921875 C 12.6875 -26.597656 12.03125 -24.765625 12.03125 -22.421875 L 12.03125 -21.3125 Z M 26.96875 -21.3125 "/></g></g></g><g fill="#ffffff" fill-opacity="1"><g transform="translate(436.453519, 136.125004)"><g><path d="M 4.6875 0 L 4.6875 -35.75 L 12.421875 -35.75 L 12.421875 -29.578125 L 13 -29.578125 C 13.382812 -31.742188 14.398438 -33.421875 16.046875 -34.609375 C 17.703125 -35.804688 19.828125 -36.40625 22.421875 -36.40625 C 26.015625 -36.40625 28.875 -35.234375 31 -32.890625 C 33.125 -30.546875 34.1875 -27.382812 34.1875 -23.40625 L 34.1875 0 L 26.0625 0 L 26.0625 -22.421875 C 26.0625 -24.585938 25.476562 -26.285156 24.3125 -27.515625 C 23.144531 -28.753906 21.539062 -29.375 19.5 -29.375 C 17.414062 -29.375 15.78125 -28.734375 14.59375 -27.453125 C 13.40625 -26.179688 12.8125 -24.441406 12.8125 -22.234375 L 12.8125 0 Z M 4.6875 0 "/></g></g></g><g fill="#ffffff" fill-opacity="1"><g transform="translate(475.448894, 136.125004)"><g><path d="M 3.96875 -22.421875 C 3.96875 -24.585938 4.257812 -26.523438 4.84375 -28.234375 C 5.425781 -29.953125 6.257812 -31.414062 7.34375 -32.625 C 8.425781 -33.84375 9.722656 -34.773438 11.234375 -35.421875 C 12.753906 -36.078125 14.425781 -36.40625 16.25 -36.40625 C 18.851562 -36.40625 21 -35.796875 22.6875 -34.578125 C 24.375 -33.367188 25.414062 -31.703125 25.8125 -29.578125 L 26.453125 -29.578125 C 26.410156 -30.316406 26.367188 -31.050781 26.328125 -31.78125 C 26.234375 -32.4375 26.175781 -33.117188 26.15625 -33.828125 C 26.132812 -34.546875 26.125 -35.1875 26.125 -35.75 L 26.125 -47.453125 L 34.25 -47.453125 L 34.25 0 L 26.453125 0 L 26.453125 -6.234375 L 25.8125 -6.234375 C 25.414062 -4.066406 24.375 -2.375 22.6875 -1.15625 C 21 0.0507812 18.851562 0.65625 16.25 0.65625 C 14.425781 0.65625 12.753906 0.332031 11.234375 -0.3125 C 9.722656 -0.96875 8.425781 -1.910156 7.34375 -3.140625 C 6.257812 -4.378906 5.425781 -5.875 4.84375 -7.625 C 4.257812 -9.382812 3.96875 -11.347656 3.96875 -13.515625 Z M 19.171875 -6.4375 C 21.296875 -6.4375 22.984375 -7.082031 24.234375 -8.375 C 25.492188 -9.675781 26.125 -11.390625 26.125 -13.515625 L 26.125 -22.234375 C 26.125 -24.398438 25.484375 -26.128906 24.203125 -27.421875 C 22.929688 -28.722656 21.253906 -29.375 19.171875 -29.375 C 16.960938 -29.375 15.226562 -28.734375 13.96875 -27.453125 C 12.71875 -26.179688 12.09375 -24.441406 12.09375 -22.234375 L 12.09375 -13.71875 C 12.09375 -11.507812 12.71875 -9.742188 13.96875 -8.421875 C 15.226562 -7.097656 16.960938 -6.4375 19.171875 -6.4375 Z M 19.171875 -6.4375 "/></g></g></g><g fill="#ffffff" fill-opacity="1"><g transform="translate(514.444223, 136.125004)"><g><path d="M 18.140625 0.65625 C 13.929688 0.65625 10.582031 -0.195312 8.09375 -1.90625 C 5.601562 -3.625 4.160156 -6.046875 3.765625 -9.171875 L 12.09375 -9.171875 C 12.351562 -8.035156 13.023438 -7.15625 14.109375 -6.53125 C 15.191406 -5.90625 16.535156 -5.59375 18.140625 -5.59375 L 20.734375 -5.59375 C 22.773438 -5.59375 24.347656 -5.992188 25.453125 -6.796875 C 26.554688 -7.597656 27.109375 -8.691406 27.109375 -10.078125 C 27.109375 -12.460938 25.265625 -13.914062 21.578125 -14.4375 L 16.515625 -15.015625 C 12.441406 -15.535156 9.425781 -16.660156 7.46875 -18.390625 C 5.519531 -20.128906 4.546875 -22.625 4.546875 -25.875 C 4.546875 -29.25 5.726562 -31.847656 8.09375 -33.671875 C 10.457031 -35.492188 13.847656 -36.40625 18.265625 -36.40625 L 20.9375 -36.40625 C 24.875 -36.40625 28.046875 -35.566406 30.453125 -33.890625 C 32.859375 -32.222656 34.273438 -29.894531 34.703125 -26.90625 L 26.390625 -26.90625 C 26.171875 -27.90625 25.570312 -28.695312 24.59375 -29.28125 C 23.625 -29.863281 22.40625 -30.15625 20.9375 -30.15625 L 18.265625 -30.15625 C 14.453125 -30.15625 12.546875 -28.8125 12.546875 -26.125 C 12.546875 -23.832031 14.148438 -22.488281 17.359375 -22.09375 L 22.625 -21.390625 C 26.863281 -20.867188 30 -19.707031 32.03125 -17.90625 C 34.070312 -16.101562 35.09375 -13.578125 35.09375 -10.328125 C 35.09375 -6.816406 33.859375 -4.109375 31.390625 -2.203125 C 28.921875 -0.296875 25.367188 0.65625 20.734375 0.65625 Z M 18.140625 0.65625 "/></g></g></g><path fill="#ff3131" d="M 243.917969 68.289062 L 242.953125 66.621094 L 241.984375 68.289062 L 242.953125 69.902344 Z M 243.917969 68.289062 " fill-opacity="1" fill-rule="nonzero"/><path fill="#ff3131" d="M 254.882812 64.3125 L 253.96875 62.644531 L 253 64.3125 L 253.96875 65.925781 Z M 254.882812 64.3125 " fill-opacity="1" fill-rule="nonzero"/><path fill="#ff3131" d="M 281.160156 68.289062 L 280.191406 66.621094 L 279.222656 68.289062 L 280.191406 69.902344 Z M 281.160156 68.289062 " fill-opacity="1" fill-rule="nonzero"/><path fill="#ff3131" d="M 270.144531 64.3125 L 269.175781 62.644531 L 268.261719 64.3125 L 269.175781 65.925781 Z M 270.144531 64.3125 " fill-opacity="1" fill-rule="nonzero"/><g clip-path="url(#6c7b5d6cf9)"><path fill="#ff3131" d="M 278.792969 75.167969 L 275.300781 63.613281 L 268.691406 72.265625 L 262.457031 59.90625 L 264.339844 56.144531 L 261.597656 50.664062 L 258.804688 56.144531 L 260.683594 59.90625 L 254.453125 72.210938 L 247.949219 63.613281 L 244.457031 75.21875 L 236.933594 66.570312 L 242.089844 82.90625 L 242.144531 83.011719 L 242.144531 86.988281 L 280.996094 86.988281 L 280.996094 83.011719 L 281.105469 82.742188 L 286.210938 66.570312 Z M 279.171875 82.097656 L 274.925781 82.097656 L 278.097656 78.445312 Z M 274.65625 67.105469 L 277.558594 76.617188 L 273.367188 81.453125 L 269.550781 73.878906 Z M 271.863281 82.097656 L 263.265625 82.097656 L 268.421875 75.328125 Z M 260.578125 56.144531 L 261.542969 54.261719 L 262.511719 56.144531 L 261.542969 58.078125 Z M 261.597656 61.679688 L 267.617188 73.664062 L 261.597656 81.617188 L 255.578125 73.609375 Z M 245.101562 78.5 L 248.21875 82.097656 L 244.027344 82.097656 Z M 259.933594 82.097656 L 251.28125 82.097656 L 254.71875 75.21875 Z M 248.59375 67.105469 L 253.644531 73.769531 L 249.828125 81.453125 L 245.691406 76.671875 Z M 240.800781 73.554688 L 243.863281 77.046875 L 242.898438 80.164062 Z M 279.386719 85.378906 L 243.757812 85.378906 L 243.757812 83.710938 L 279.386719 83.710938 Z M 280.246094 80.058594 L 279.332031 76.992188 L 282.339844 73.554688 Z M 280.246094 80.058594 " fill-opacity="1" fill-rule="nonzero"/></g></svg>